<?xml version="1.0" encoding="UTF-8" standalone="no"?>
<svg
   xmlns:dc="http://purl.org/dc/elements/1.1/"
   xmlns:cc="http://creativecommons.org/ns#"
   xmlns:rdf="http://www.w3.org/1999/02/22-rdf-syntax-ns#"
   xmlns:svg="http://www.w3.org/2000/svg"
   xmlns="http://www.w3.org/2000/svg"
   xmlns:xlink="http://www.w3.org/1999/xlink"
   id="svg19"
   version="1.1"
   viewBox="0 0 174 42"
   height="42"
   width="174">
  <metadata
     id="metadata23">
    <rdf:RDF>
      <cc:Work
         rdf:about="">
        <dc:format>image/svg+xml</dc:format>
        <dc:type
           rdf:resource="http://purl.org/dc/dcmitype/StillImage" />
      </cc:Work>
    </rdf:RDF>
  </metadata>
  <!-- Generator: Sketch 42 (36781) - http://www.bohemiancoding.com/sketch -->
  <title
     id="title2">SSL Badge - Updated Copy</title>
  <desc
     id="desc4">Created with Sketch.</desc>
  <defs
     id="defs10">
    <path
       id="path-1"
       d="M 0,36.740762 C 0,38.537611 1.6371676,40 3.6529112,40 H 168.34709 C 170.3651,40 172,38.541056 172,36.740762 V 3.2592384 C 172,1.4623887 170.36283,0 168.34709,0 H 3.6529112 C 1.6348958,0 0,1.4589437 0,3.2592384 Z" />
    <mask
       fill="white"
       height="40"
       width="172"
       y="0"
       x="0"
       maskUnits="objectBoundingBox"
       maskContentUnits="userSpaceOnUse"
       id="mask-2">
      <use
         height="100%"
         width="100%"
         y="0"
         x="0"
         id="use7"
         xlink:href="#path-1" />
    </mask>
  </defs>
  <g
     transform="translate(1,1)"
     style="fill:none;fill-rule:evenodd;stroke:none;stroke-width:1"
     id="Page-1">
    <g
       id="SSL-Badge---Updated-Copy">
      <g
         id="Group-2">
        <path
           style="fill:#ffffff"
           id="Secured-with-SSL"
           d="m 56.517,16.719 c -0.056,0.098 -0.1155,0.169166 -0.1785,0.2135 -0.063,0.04433 -0.141166,0.0665 -0.2345,0.0665 -0.098,0 -0.204166,-0.03617 -0.3185,-0.1085 C 55.671166,16.81817 55.534667,16.737667 55.376,16.649 55.217332,16.56033 55.031834,16.479834 54.8195,16.4075 54.607166,16.33517 54.356335,16.299 54.067,16.299 c -0.261335,0 -0.489999,0.0315 -0.686,0.0945 -0.196001,0.063 -0.360499,0.150499 -0.4935,0.2625 -0.133001,0.112001 -0.232166,0.246166 -0.2975,0.4025 -0.06533,0.156334 -0.098,0.327832 -0.098,0.5145 0,0.238001 0.0665,0.436332 0.1995,0.595 0.133001,0.158667 0.309166,0.293999 0.5285,0.406 0.219334,0.112001 0.468999,0.212333 0.749,0.301 0.280001,0.08867 0.566998,0.183166 0.861,0.2835 0.294001,0.100334 0.580999,0.216999 0.861,0.35 0.280001,0.133001 0.529666,0.300999 0.749,0.504 0.219334,0.203001 0.395499,0.451498 0.5285,0.7455 0.133001,0.294001 0.1995,0.650998 0.1995,1.071 0,0.457336 -0.07817,0.885498 -0.2345,1.2845 -0.156334,0.399002 -0.384999,0.746665 -0.686,1.043 -0.301002,0.296335 -0.668498,0.529666 -1.1025,0.7 -0.434002,0.170334 -0.930997,0.2555 -1.491,0.2555 -0.322002,0 -0.639332,-0.0315 -0.952,-0.0945 -0.312668,-0.063 -0.612499,-0.152833 -0.8995,-0.2695 -0.287001,-0.116667 -0.556499,-0.256666 -0.8085,-0.42 -0.252001,-0.163334 -0.475999,-0.345332 -0.672,-0.546 l 0.553,-0.903 c 0.04667,-0.06533 0.107333,-0.120166 0.182,-0.1645 0.07467,-0.04433 0.154,-0.0665 0.238,-0.0665 0.116667,0 0.242666,0.04783 0.378,0.1435 0.135334,0.09567 0.296332,0.201833 0.483,0.3185 0.186668,0.116667 0.404832,0.222833 0.6545,0.3185 0.249668,0.09567 0.549498,0.1435 0.8995,0.1435 0.536669,0 0.951999,-0.127165 1.246,-0.3815 0.294002,-0.254335 0.441,-0.619498 0.441,-1.0955 0,-0.266001 -0.0665,-0.482999 -0.1995,-0.651 C 55.064499,21.275999 54.888334,21.134834 54.669,21.0205 54.449666,20.906166 54.200001,20.809334 53.92,20.73 53.639999,20.650666 53.355335,20.564334 53.066,20.471 52.776665,20.377666 52.492001,20.265667 52.212,20.135 51.931999,20.004333 51.682334,19.834001 51.463,19.624 51.243666,19.413999 51.067501,19.151502 50.9345,18.8365 50.801499,18.521498 50.735,18.133002 50.735,17.671 c 0,-0.368669 0.0735,-0.727998 0.2205,-1.078 0.147001,-0.350002 0.360499,-0.660332 0.6405,-0.931 0.280001,-0.270668 0.625331,-0.487666 1.036,-0.651 0.410669,-0.163334 0.881997,-0.245 1.414,-0.245 0.597336,0 1.147998,0.09333 1.652,0.28 0.504002,0.186668 0.933332,0.447998 1.288,0.784 z m 6.602,3.864 c 0,-0.224001 -0.0315,-0.435166 -0.0945,-0.6335 -0.063,-0.198334 -0.157499,-0.372166 -0.2835,-0.5215 -0.126001,-0.149334 -0.285832,-0.267166 -0.4795,-0.3535 -0.193668,-0.08633 -0.418832,-0.1295 -0.6755,-0.1295 -0.499336,0 -0.892499,0.142332 -1.1795,0.427 -0.287001,0.284668 -0.470166,0.688331 -0.5495,1.211 z m -3.297,1.043 c 0.028,0.368668 0.09333,0.687165 0.196,0.9555 0.102667,0.268335 0.237999,0.489999 0.406,0.665 0.168001,0.175001 0.367499,0.305666 0.5985,0.392 0.231001,0.08633 0.486499,0.1295 0.7665,0.1295 0.280001,0 0.521499,-0.03267 0.7245,-0.098 0.203001,-0.06533 0.380333,-0.137666 0.532,-0.217 0.151667,-0.07933 0.284666,-0.151666 0.399,-0.217 0.114334,-0.06533 0.225166,-0.098 0.3325,-0.098 0.144667,0 0.252,0.05367 0.322,0.161 l 0.497,0.63 c -0.191334,0.224001 -0.405999,0.411833 -0.644,0.5635 -0.238001,0.151667 -0.486499,0.272999 -0.7455,0.364 -0.259001,0.091 -0.522665,0.155166 -0.791,0.1925 -0.268335,0.03733 -0.528499,0.056 -0.7805,0.056 -0.499336,0 -0.963665,-0.08283 -1.393,-0.2485 -0.429336,-0.165668 -0.802665,-0.410665 -1.12,-0.735 -0.317335,-0.324335 -0.566999,-0.725664 -0.749,-1.204 C 58.190999,22.439164 58.1,21.885003 58.1,21.255 c 0,-0.490002 0.07933,-0.950831 0.238,-1.3825 0.158667,-0.431669 0.386165,-0.807332 0.6825,-1.127 0.296335,-0.319668 0.657998,-0.572832 1.085,-0.7595 0.427002,-0.186668 0.908831,-0.28 1.4455,-0.28 0.452669,0 0.870331,0.07233 1.253,0.217 0.382669,0.144667 0.711665,0.355832 0.987,0.6335 0.275335,0.277668 0.491166,0.618331 0.6475,1.022 0.156334,0.403669 0.2345,0.864497 0.2345,1.3825 0,0.261335 -0.028,0.437499 -0.084,0.5285 -0.056,0.091 -0.163332,0.1365 -0.322,0.1365 z m 11.271,-2.289 c -0.05133,0.06533 -0.1015,0.116666 -0.1505,0.154 -0.049,0.03733 -0.120166,0.056 -0.2135,0.056 -0.08867,0 -0.175,-0.02683 -0.259,-0.0805 -0.084,-0.05367 -0.184333,-0.114333 -0.301,-0.182 -0.116667,-0.06767 -0.255499,-0.128333 -0.4165,-0.182 -0.161001,-0.05367 -0.360499,-0.0805 -0.5985,-0.0805 -0.303335,0 -0.569332,0.05483 -0.798,0.1645 -0.228668,0.109667 -0.418833,0.267166 -0.5705,0.4725 -0.151667,0.205334 -0.264833,0.453832 -0.3395,0.7455 -0.07467,0.291668 -0.112,0.621832 -0.112,0.9905 0,0.382669 0.04083,0.723332 0.1225,1.022 0.08167,0.298668 0.199499,0.549499 0.3535,0.7525 0.154001,0.203001 0.340666,0.356999 0.56,0.462 0.219334,0.105 0.466665,0.1575 0.742,0.1575 0.275335,0 0.498166,-0.03383 0.6685,-0.1015 0.170334,-0.06767 0.313833,-0.142333 0.4305,-0.224 0.116667,-0.08167 0.218166,-0.156333 0.3045,-0.224 0.08633,-0.06767 0.183166,-0.1015 0.2905,-0.1015 0.140001,0 0.245,0.05367 0.315,0.161 l 0.497,0.63 c -0.191334,0.224001 -0.398999,0.411833 -0.623,0.5635 -0.224001,0.151667 -0.456166,0.272999 -0.6965,0.364 -0.240335,0.091 -0.487665,0.155166 -0.742,0.1925 -0.254335,0.03733 -0.507499,0.056 -0.7595,0.056 -0.443336,0 -0.860998,-0.08283 -1.253,-0.2485 -0.392002,-0.165668 -0.734999,-0.407165 -1.029,-0.7245 -0.294002,-0.317335 -0.526166,-0.705831 -0.6965,-1.1655 -0.170334,-0.459669 -0.2555,-0.983497 -0.2555,-1.5715 0,-0.527336 0.07583,-1.016164 0.2275,-1.4665 0.151667,-0.450336 0.374498,-0.839998 0.6685,-1.169 0.294001,-0.329002 0.657998,-0.586832 1.092,-0.7735 0.434002,-0.186668 0.93333,-0.28 1.498,-0.28 0.536669,0 1.006831,0.08633 1.4105,0.259 0.403669,0.172667 0.766498,0.419998 1.0885,0.742 z m 7.771,-1.519 V 25 h -1.057 c -0.228668,0 -0.373333,-0.104999 -0.434,-0.315 l -0.119,-0.574 c -0.294002,0.298668 -0.618332,0.540166 -0.973,0.7245 -0.354668,0.184334 -0.772331,0.2765 -1.253,0.2765 -0.392002,0 -0.738499,-0.0665 -1.0395,-0.1995 C 73.687499,24.779499 73.434334,24.591668 73.229,24.349 73.023666,24.106332 72.8685,23.818168 72.7635,23.4845 72.6585,23.150832 72.606,22.783335 72.606,22.382 v -4.564 h 1.729 v 4.564 c 0,0.438669 0.101499,0.778166 0.3045,1.0185 0.203001,0.240334 0.507498,0.3605 0.9135,0.3605 0.298668,0 0.578665,-0.0665 0.84,-0.1995 0.261335,-0.133001 0.508665,-0.316166 0.742,-0.5495 v -5.194 z m 3.319,1.246 c 0.224001,-0.429336 0.489999,-0.766499 0.798,-1.0115 0.308001,-0.245001 0.671998,-0.3675 1.092,-0.3675 0.331335,0 0.597332,0.07233 0.798,0.217 l -0.112,1.295 c -0.02333,0.084 -0.05717,0.1435 -0.1015,0.1785 -0.04433,0.035 -0.103833,0.0525 -0.1785,0.0525 -0.07,0 -0.173833,-0.01167 -0.3115,-0.035 -0.137667,-0.02333 -0.271833,-0.035 -0.4025,-0.035 -0.191334,0 -0.361666,0.028 -0.511,0.084 -0.149334,0.056 -0.283499,0.136499 -0.4025,0.2415 -0.119001,0.105001 -0.224,0.232166 -0.315,0.3815 -0.091,0.149334 -0.176166,0.319666 -0.2555,0.511 V 25 h -1.729 v -7.182 h 1.015 c 0.177334,0 0.301,0.0315 0.371,0.0945 0.07,0.063 0.116667,0.176166 0.14,0.3395 z m 7.995,1.519 c 0,-0.224001 -0.0315,-0.435166 -0.0945,-0.6335 C 90.0205,19.751166 89.926001,19.577334 89.8,19.428 89.673999,19.278666 89.514168,19.160834 89.3205,19.0745 89.126832,18.988166 88.901668,18.945 88.645,18.945 c -0.499336,0 -0.892499,0.142332 -1.1795,0.427 -0.287001,0.284668 -0.470166,0.688331 -0.5495,1.211 z m -3.297,1.043 c 0.028,0.368668 0.09333,0.687165 0.196,0.9555 0.102667,0.268335 0.237999,0.489999 0.406,0.665 0.168001,0.175001 0.367499,0.305666 0.5985,0.392 0.231001,0.08633 0.486499,0.1295 0.7665,0.1295 0.280001,0 0.521499,-0.03267 0.7245,-0.098 0.203001,-0.06533 0.380333,-0.137666 0.532,-0.217 0.151667,-0.07933 0.284666,-0.151666 0.399,-0.217 0.114334,-0.06533 0.225166,-0.098 0.3325,-0.098 0.144667,0 0.252,0.05367 0.322,0.161 l 0.497,0.63 c -0.191334,0.224001 -0.405999,0.411833 -0.644,0.5635 -0.238001,0.151667 -0.486499,0.272999 -0.7455,0.364 -0.259001,0.091 -0.522665,0.155166 -0.791,0.1925 -0.268335,0.03733 -0.528499,0.056 -0.7805,0.056 -0.499336,0 -0.963665,-0.08283 -1.393,-0.2485 -0.429336,-0.165668 -0.802665,-0.410665 -1.12,-0.735 -0.317335,-0.324335 -0.566999,-0.725664 -0.749,-1.204 -0.182001,-0.478336 -0.273,-1.032497 -0.273,-1.6625 0,-0.490002 0.07933,-0.950831 0.238,-1.3825 0.158667,-0.431669 0.386165,-0.807332 0.6825,-1.127 0.296335,-0.319668 0.657998,-0.572832 1.085,-0.7595 0.427002,-0.186668 0.908831,-0.28 1.4455,-0.28 0.452669,0 0.870331,0.07233 1.253,0.217 0.382669,0.144667 0.711665,0.355832 0.987,0.6335 0.275335,0.277668 0.491166,0.618331 0.6475,1.022 0.156334,0.403669 0.2345,0.864497 0.2345,1.3825 0,0.261335 -0.028,0.437499 -0.084,0.5285 -0.056,0.091 -0.163333,0.1365 -0.322,0.1365 z m 10.634,-1.974 c -0.196001,-0.238001 -0.409499,-0.406 -0.6405,-0.504 -0.231001,-0.098 -0.479499,-0.147 -0.7455,-0.147 -0.261335,0 -0.496999,0.049 -0.707,0.147 -0.210001,0.098 -0.389666,0.246166 -0.539,0.4445 -0.149334,0.198334 -0.263666,0.450332 -0.343,0.756 -0.07933,0.305668 -0.119,0.666165 -0.119,1.0815 0,0.420002 0.03383,0.775832 0.1015,1.0675 0.06767,0.291668 0.164499,0.529666 0.2905,0.714 0.126001,0.184334 0.279999,0.317333 0.462,0.399 0.182001,0.08167 0.384999,0.1225 0.609,0.1225 0.359335,0 0.664999,-0.07467 0.917,-0.224 0.252001,-0.149334 0.489999,-0.361665 0.714,-0.637 z m 1.729,-5.054 V 25 h -1.057 c -0.228668,0 -0.373333,-0.104999 -0.434,-0.315 l -0.147,-0.693 c -0.289335,0.331335 -0.621832,0.599666 -0.9975,0.805 -0.375668,0.205334 -0.813164,0.308 -1.3125,0.308 -0.392002,0 -0.751332,-0.08167 -1.078,-0.245 -0.326668,-0.163334 -0.607832,-0.400165 -0.8435,-0.7105 -0.235668,-0.310335 -0.417666,-0.694164 -0.546,-1.1515 -0.128334,-0.457336 -0.1925,-0.979997 -0.1925,-1.568 0,-0.532003 0.07233,-1.026664 0.217,-1.484 0.144667,-0.457336 0.352332,-0.853998 0.623,-1.19 0.270668,-0.336002 0.594998,-0.598499 0.973,-0.7875 0.378002,-0.189001 0.802664,-0.2835 1.274,-0.2835 0.401335,0 0.744332,0.063 1.029,0.189 0.284668,0.126001 0.538999,0.296332 0.763,0.511 v -3.787 z m 15.038,3.22 L 112,25 h -1.386 c -0.15867,0 -0.26833,-0.102666 -0.329,-0.308 l -1.288,-4.151 c -0.042,-0.140001 -0.0805,-0.278833 -0.1155,-0.4165 -0.035,-0.137667 -0.0642,-0.276499 -0.0875,-0.4165 -0.028,0.140001 -0.0595,0.281166 -0.0945,0.4235 -0.035,0.142334 -0.0735,0.283499 -0.1155,0.4235 l -1.309,4.137 C 107.219,24.897334 107.09533,25 106.904,25 h -1.33 l -2.275,-7.182 h 1.379 c 0.126,0 0.23333,0.03033 0.322,0.091 0.0887,0.06067 0.147,0.137666 0.175,0.231 l 1.029,3.836 c 0.0513,0.210001 0.0968,0.415332 0.1365,0.616 0.0397,0.200668 0.0735,0.401332 0.1015,0.602 0.0513,-0.200668 0.10617,-0.401332 0.1645,-0.602 0.0583,-0.200668 0.12017,-0.405999 0.1855,-0.616 l 1.19,-3.85 c 0.028,-0.09333 0.0828,-0.170333 0.1645,-0.231 0.0817,-0.06067 0.18083,-0.091 0.2975,-0.091 h 0.763 c 0.12133,0 0.22517,0.03033 0.3115,0.091 0.0863,0.06067 0.1435,0.137666 0.1715,0.231 l 1.155,3.85 c 0.0607,0.210001 0.11783,0.416499 0.1715,0.6195 0.0537,0.203001 0.10617,0.404832 0.1575,0.6055 0.0607,-0.396669 0.147,-0.804998 0.259,-1.225 l 1.057,-3.836 c 0.0327,-0.09333 0.091,-0.170333 0.175,-0.231 0.084,-0.06067 0.18433,-0.091 0.301,-0.091 z m 2.752,0 V 25 h -1.736 v -7.182 z m 0.238,-2.093 c 0,0.149334 -0.0303,0.289333 -0.091,0.42 -0.0607,0.130667 -0.14117,0.244999 -0.2415,0.343 -0.10033,0.098 -0.21817,0.176166 -0.3535,0.2345 -0.13533,0.05833 -0.28,0.0875 -0.434,0.0875 -0.14933,0 -0.2905,-0.02917 -0.4235,-0.0875 -0.133,-0.05833 -0.2485,-0.1365 -0.3465,-0.2345 -0.098,-0.098 -0.17617,-0.212333 -0.2345,-0.343 -0.0583,-0.130667 -0.0875,-0.270666 -0.0875,-0.42 0,-0.154001 0.0292,-0.298666 0.0875,-0.434 0.0583,-0.135334 0.1365,-0.251999 0.2345,-0.35 0.098,-0.098 0.2135,-0.176166 0.3465,-0.2345 0.133,-0.05833 0.27417,-0.0875 0.4235,-0.0875 0.154,0 0.29867,0.02917 0.434,0.0875 0.13533,0.05833 0.25317,0.136499 0.3535,0.2345 0.10033,0.098 0.18083,0.214666 0.2415,0.35 0.0607,0.135334 0.091,0.279999 0.091,0.434 z m 3.9,9.387 c -0.62534,0 -1.10483,-0.176165 -1.4385,-0.5285 -0.33367,-0.352335 -0.5005,-0.83883 -0.5005,-1.4595 v -4.011 h -0.735 c -0.0933,0 -0.17267,-0.03033 -0.238,-0.091 -0.0653,-0.06067 -0.098,-0.151666 -0.098,-0.273 v -0.686 l 1.155,-0.189 0.364,-1.96 c 0.0233,-0.09333 0.0677,-0.165666 0.133,-0.217 0.0653,-0.05133 0.14933,-0.077 0.252,-0.077 h 0.896 v 2.261 h 1.918 v 1.232 h -1.918 v 3.892 c 0,0.224001 0.0548,0.398999 0.1645,0.525 0.10967,0.126001 0.26017,0.189 0.4515,0.189 0.10733,0 0.19717,-0.01283 0.2695,-0.0385 0.0723,-0.02567 0.13533,-0.0525 0.189,-0.0805 0.0537,-0.028 0.1015,-0.05483 0.1435,-0.0805 0.042,-0.02567 0.084,-0.0385 0.126,-0.0385 0.0513,0 0.0933,0.01283 0.126,0.0385 0.0327,0.02567 0.0677,0.06417 0.105,0.1155 l 0.518,0.84 c -0.252,0.210001 -0.54133,0.368666 -0.868,0.476 -0.32667,0.107334 -0.665,0.161 -1.015,0.161 z m 4.523,-6.524 c 0.28,-0.261335 0.588,-0.473666 0.924,-0.637 0.336,-0.163334 0.73033,-0.245 1.183,-0.245 0.392,0 0.73966,0.0665 1.043,0.1995 0.30333,0.133001 0.5565,0.319665 0.7595,0.56 0.203,0.240335 0.357,0.527332 0.462,0.861 0.105,0.333668 0.1575,0.701165 0.1575,1.1025 V 25 h -1.729 v -4.571 c 0,-0.438669 -0.10033,-0.778166 -0.301,-1.0185 -0.20067,-0.240335 -0.50633,-0.3605 -0.917,-0.3605 -0.29867,0 -0.57866,0.06767 -0.84,0.203 -0.26134,0.135334 -0.50866,0.319665 -0.742,0.553 V 25 h -1.729 V 14.598 h 1.729 z m 15.192,-1.869 c -0.056,0.098 -0.1155,0.169166 -0.1785,0.2135 -0.063,0.04433 -0.14117,0.0665 -0.2345,0.0665 -0.098,0 -0.20417,-0.03617 -0.3185,-0.1085 -0.11433,-0.07233 -0.25083,-0.152833 -0.4095,-0.2415 -0.15867,-0.08867 -0.34417,-0.169166 -0.5565,-0.2415 -0.21233,-0.07233 -0.46317,-0.1085 -0.7525,-0.1085 -0.26134,0 -0.49,0.0315 -0.686,0.0945 -0.196,0.063 -0.3605,0.150499 -0.4935,0.2625 -0.133,0.112001 -0.23217,0.246166 -0.2975,0.4025 -0.0653,0.156334 -0.098,0.327832 -0.098,0.5145 0,0.238001 0.0665,0.436332 0.1995,0.595 0.133,0.158667 0.30917,0.293999 0.5285,0.406 0.21933,0.112001 0.469,0.212333 0.749,0.301 0.28,0.08867 0.567,0.183166 0.861,0.2835 0.294,0.100334 0.581,0.216999 0.861,0.35 0.28,0.133001 0.52967,0.300999 0.749,0.504 0.21933,0.203001 0.3955,0.451498 0.5285,0.7455 0.133,0.294001 0.1995,0.650998 0.1995,1.071 0,0.457336 -0.0782,0.885498 -0.2345,1.2845 -0.15633,0.399002 -0.385,0.746665 -0.686,1.043 -0.301,0.296335 -0.6685,0.529666 -1.1025,0.7 -0.434,0.170334 -0.931,0.2555 -1.491,0.2555 -0.322,0 -0.63933,-0.0315 -0.952,-0.0945 -0.31267,-0.063 -0.6125,-0.152833 -0.8995,-0.2695 -0.287,-0.116667 -0.5565,-0.256666 -0.8085,-0.42 -0.252,-0.163334 -0.476,-0.345332 -0.672,-0.546 l 0.553,-0.903 c 0.0467,-0.06533 0.10733,-0.120166 0.182,-0.1645 0.0747,-0.04433 0.154,-0.0665 0.238,-0.0665 0.11667,0 0.24267,0.04783 0.378,0.1435 0.13533,0.09567 0.29633,0.201833 0.483,0.3185 0.18667,0.116667 0.40483,0.222833 0.6545,0.3185 0.24967,0.09567 0.5495,0.1435 0.8995,0.1435 0.53667,0 0.952,-0.127165 1.246,-0.3815 0.294,-0.254335 0.441,-0.619498 0.441,-1.0955 0,-0.266001 -0.0665,-0.482999 -0.1995,-0.651 -0.133,-0.168001 -0.30917,-0.309166 -0.5285,-0.4235 -0.21933,-0.114334 -0.469,-0.211166 -0.749,-0.2905 -0.28,-0.07933 -0.56467,-0.165666 -0.854,-0.259 -0.28933,-0.09333 -0.574,-0.205333 -0.854,-0.336 -0.28,-0.130667 -0.52967,-0.300999 -0.749,-0.511 -0.21933,-0.210001 -0.3955,-0.472498 -0.5285,-0.7875 -0.133,-0.315002 -0.1995,-0.703498 -0.1995,-1.1655 0,-0.368669 0.0735,-0.727998 0.2205,-1.078 0.147,-0.350002 0.3605,-0.660332 0.6405,-0.931 0.28,-0.270668 0.62533,-0.487666 1.036,-0.651 0.41067,-0.163334 0.882,-0.245 1.414,-0.245 0.59734,0 1.148,0.09333 1.652,0.28 0.504,0.186668 0.93333,0.447998 1.288,0.784 z m 7.659,0 c -0.056,0.098 -0.1155,0.169166 -0.1785,0.2135 -0.063,0.04433 -0.14117,0.0665 -0.2345,0.0665 -0.098,0 -0.20417,-0.03617 -0.3185,-0.1085 -0.11433,-0.07233 -0.25083,-0.152833 -0.4095,-0.2415 -0.15867,-0.08867 -0.34417,-0.169166 -0.5565,-0.2415 -0.21233,-0.07233 -0.46317,-0.1085 -0.7525,-0.1085 -0.26134,0 -0.49,0.0315 -0.686,0.0945 -0.196,0.063 -0.3605,0.150499 -0.4935,0.2625 -0.133,0.112001 -0.23217,0.246166 -0.2975,0.4025 -0.0653,0.156334 -0.098,0.327832 -0.098,0.5145 0,0.238001 0.0665,0.436332 0.1995,0.595 0.133,0.158667 0.30917,0.293999 0.5285,0.406 0.21933,0.112001 0.469,0.212333 0.749,0.301 0.28,0.08867 0.567,0.183166 0.861,0.2835 0.294,0.100334 0.581,0.216999 0.861,0.35 0.28,0.133001 0.52967,0.300999 0.749,0.504 0.21933,0.203001 0.3955,0.451498 0.5285,0.7455 0.133,0.294001 0.1995,0.650998 0.1995,1.071 0,0.457336 -0.0782,0.885498 -0.2345,1.2845 -0.15633,0.399002 -0.385,0.746665 -0.686,1.043 -0.301,0.296335 -0.6685,0.529666 -1.1025,0.7 -0.434,0.170334 -0.931,0.2555 -1.491,0.2555 -0.322,0 -0.63933,-0.0315 -0.952,-0.0945 -0.31267,-0.063 -0.6125,-0.152833 -0.8995,-0.2695 -0.287,-0.116667 -0.5565,-0.256666 -0.8085,-0.42 -0.252,-0.163334 -0.476,-0.345332 -0.672,-0.546 l 0.553,-0.903 c 0.0467,-0.06533 0.10733,-0.120166 0.182,-0.1645 0.0747,-0.04433 0.154,-0.0665 0.238,-0.0665 0.11667,0 0.24267,0.04783 0.378,0.1435 0.13533,0.09567 0.29633,0.201833 0.483,0.3185 0.18667,0.116667 0.40483,0.222833 0.6545,0.3185 0.24967,0.09567 0.5495,0.1435 0.8995,0.1435 0.53667,0 0.952,-0.127165 1.246,-0.3815 0.294,-0.254335 0.441,-0.619498 0.441,-1.0955 0,-0.266001 -0.0665,-0.482999 -0.1995,-0.651 -0.133,-0.168001 -0.30917,-0.309166 -0.5285,-0.4235 -0.21933,-0.114334 -0.469,-0.211166 -0.749,-0.2905 -0.28,-0.07933 -0.56467,-0.165666 -0.854,-0.259 -0.28934,-0.09333 -0.574,-0.205333 -0.854,-0.336 -0.28,-0.130667 -0.52967,-0.300999 -0.749,-0.511 -0.21933,-0.210001 -0.3955,-0.472498 -0.5285,-0.7875 -0.133,-0.315002 -0.1995,-0.703498 -0.1995,-1.1655 0,-0.368669 0.0735,-0.727998 0.2205,-1.078 0.147,-0.350002 0.3605,-0.660332 0.6405,-0.931 0.28,-0.270668 0.62533,-0.487666 1.036,-0.651 0.41067,-0.163334 0.882,-0.245 1.414,-0.245 0.59734,0 1.148,0.09333 1.652,0.28 0.504,0.186668 0.93333,0.447998 1.288,0.784 z m 8.198,6.727 V 25 h -5.929 V 14.878 h 1.883 v 8.568 z" />
        <path
           style="opacity:0.5;fill:#ffffff"
           id="Shape"
           d="m 23.272251,18.332155 v 0 -3.222614 C 23.272251,13.413428 21.832461,12 20.104712,12 h -1.209424 c -1.727749,0 -3.167539,1.413428 -3.167539,3.109541 v 3.222614 0 C 14.806283,18.332155 14,19.067138 14,20.028269 v 6.275618 C 14,27.208481 14.748691,28 15.727749,28 h 7.544502 C 24.193717,28 25,27.265018 25,26.303887 v -6.275618 c 0,-0.961131 -0.748691,-1.696114 -1.727749,-1.696114 z m -2.994764,4.918728 v 1.074205 c 0,0.169612 -0.115183,0.282686 -0.287958,0.282686 h -0.863875 c -0.172774,0 -0.287958,-0.113074 -0.287958,-0.282686 v -1.074205 c -0.403141,-0.226148 -0.691099,-0.678445 -0.691099,-1.243816 0,-0.791519 0.633508,-1.413427 1.43979,-1.413427 0.806283,0 1.439791,0.621908 1.439791,1.413427 -0.05759,0.565371 -0.34555,1.017668 -0.748691,1.243816 z m 1.554974,-4.918728 h -4.60733 v -3.392226 c 0,-0.791519 0.633508,-1.413427 1.43979,-1.413427 h 1.727749 c 0.806283,0 1.439791,0.621908 1.439791,1.413427 z" />
        <use
           height="100%"
           width="100%"
           y="0"
           x="0"
           style="opacity:0.2;fill-rule:nonzero;stroke:#ffffff;stroke-width:2"
           xlink:href="#path-1"
           mask="url(#mask-2)"
           id="Rectangle-path-Copy" />
        <polygon
           style="opacity:0.2;fill:#ffffff;fill-rule:nonzero"
           points="38,7 37,7 37,33 38,33 "
           id="Shape-Copy" />
      </g>
    </g>
  </g>
</svg>
